# xmcd
#
# Track frame offsets:
# 183
# 40408
# 96955
# 123310
# 153348
# 189270
# 203395
#
# Disc length: 2895 seconds
#
#
# Revision: 0
# Processed by: cddbd v1.4PL0 Copyright (c) Steve Scherf et al.
# Submitted via: FreeRIP 2.10 
#
DISCID=500b4d07
DTITLE=Taste - Just A Rolling Stone
DYEAR=1970
DGENRE=Classic Rock
TTITLE0=I Feel So Good
TTITLE1=Catfish
TTITLE2=Laundromat
TTITLE3=Hands Up
TTITLE4=For The Last Time
TTITLE5=Wave Myself Goodbye
TTITLE6=Just The Smile
EXTD=The Genuine Pig Label (TGP-CD-120]\nLive Recording\nTrack1 and 2 =Basel,Stadthalle,February 1970\n3->7 Amsterdam June 5th 1970
EXTT0=
EXTT1=
EXTT2=
EXTT3=
EXTT4=
EXTT5=
EXTT6=
PLAYORDER=
